<svg version="1.1" viewBox="0.0 0.0 400.0 400.0" fill="none" stroke="none" stroke-linecap="square" stroke-miterlimit="10" xmlns:xlink="http://www.w3.org/1999/xlink" xmlns="http://www.w3.org/2000/svg"><clipPath id="p.0"><path d="m0 0l400.0 0l0 400.0l-400.0 0l0 -400.0z" clip-rule="nonzero"/></clipPath><g clip-path="url(#p.0)"><path fill="#f2f2f2" d="m0 0l400.0 0l0 400.0l-400.0 0z" fill-rule="evenodd"/><path fill="#000000" fill-opacity="0.0" d="m0 0l400.0 0l0 265.82678l-400.0 0z" fill-rule="evenodd"/><path fill="#ff00ff" d="m14.28125 87.08l0 -40.34375l9.765625 0l0.8125 7.078125l0.328125 0q2.1875 -4.0625 5.28125 -6.046875q3.09375 -2.0 6.1875 -2.0q1.703125 0 2.84375 0.203125q1.140625 0.203125 1.953125 0.609375l-1.953125 10.328125q-1.0625 -0.328125 -2.078125 -0.484375q-1.015625 -0.171875 -2.3125 -0.171875q-2.28125 0 -4.765625 1.671875q-2.46875 1.671875 -4.109375 5.734375l0 23.421875l-11.953125 0zm40.263153 0.96875q-5.53125 0 -8.78125 -3.53125q-3.25 -3.53125 -3.25 -8.65625q0 -6.34375 5.359375 -9.921875q5.375 -3.578125 17.328125 -4.796875q-0.171875 -2.6875 -1.59375 -4.265625q-1.421875 -1.59375 -4.75 -1.59375q-2.53125 0 -5.140625 0.984375q-2.59375 0.96875 -5.515625 2.671875l-4.3125 -7.890625q3.828125 -2.359375 8.171875 -3.8125q4.359375 -1.46875 9.078125 -1.46875q7.71875 0 11.859375 4.46875q4.15625 4.46875 4.15625 13.75l0 23.09375l-9.765625 0l-0.8125 -4.140625l-0.328125 0q-2.515625 2.265625 -5.40625 3.6875q-2.875 1.421875 -6.296875 1.421875zm4.0625 -9.265625q2.03125 0 3.53125 -0.9375q1.515625 -0.9375 3.0625 -2.484375l0 -7.0625q-6.34375 0.8125 -8.78125 2.5625q-2.4375 1.75 -2.4375 4.09375q0 1.953125 1.25 2.890625q1.265625 0.9375 3.375 0.9375zm28.625565 8.296875l0 -40.34375l9.765625 0l0.8125 7.078125l0.328125 0q2.1875 -4.0625 5.28125 -6.046875q3.09375 -2.0 6.1875 -2.0q1.703125 0 2.84375 0.203125q1.140625 0.203125 1.953125 0.609375l-1.953125 10.328125q-1.0625 -0.328125 -2.078125 -0.484375q-1.015625 -0.171875 -2.3125 -0.171875q-2.28125 0 -4.765625 1.671875q-2.46875 1.671875 -4.109375 5.734375l0 23.421875l-11.953125 0zm40.263153 0.96875q-5.53125 0 -8.78125 -3.53125q-3.25 -3.53125 -3.25 -8.65625q0 -6.34375 5.359375 -9.921875q5.375 -3.578125 17.328125 -4.796875q-0.171875 -2.6875 -1.59375 -4.265625q-1.421875 -1.59375 -4.75 -1.59375q-2.53125 0 -5.140625 0.984375q-2.59375 0.96875 -5.515625 2.671875l-4.3125 -7.890625q3.828125 -2.359375 8.171875 -3.8125q4.359375 -1.46875 9.078125 -1.46875q7.71875 0 11.859375 4.46875q4.15625 4.46875 4.15625 13.75l0 23.09375l-9.765625 0l-0.8125 -4.140625l-0.328125 0q-2.515625 2.265625 -5.40625 3.6875q-2.875 1.421875 -6.296875 1.421875zm4.0625 -9.265625q2.03125 0 3.53125 -0.9375q1.515625 -0.9375 3.0625 -2.484375l0 -7.0625q-6.34375 0.8125 -8.78125 2.5625q-2.4375 1.75 -2.4375 4.09375q0 1.953125 1.25 2.890625q1.265625 0.9375 3.375 0.9375z" fill-rule="nonzero"/><path fill="#ff00ff" d="m14.28125 233.48l0 -40.34375l9.765625 0l0.8125 5.203125l0.328125 0q2.515625 -2.515625 5.359375 -4.34375q2.859375 -1.828125 6.84375 -1.828125q4.296875 0 6.9375 1.75q2.65625 1.75 4.203125 5.0q2.671875 -2.765625 5.6875 -4.75q3.015625 -2.0 7.0 -2.0q6.5 0 9.546875 4.359375q3.046875 4.34375 3.046875 11.90625l0 25.046875l-11.953125 0l0 -23.5q0 -4.390625 -1.1875 -6.015625q-1.171875 -1.640625 -3.765625 -1.640625q-3.015625 0 -6.921875 3.90625l0 27.25l-11.953125 0l0 -23.5q0 -4.390625 -1.1875 -6.015625q-1.171875 -1.640625 -3.765625 -1.640625q-3.015625 0 -6.84375 3.90625l0 27.25l-11.953125 0zm79.8701 0.96875q-5.53125 0 -8.78125 -3.53125q-3.25 -3.53125 -3.25 -8.65625q0 -6.34375 5.359375 -9.921875q5.375 -3.578125 17.328125 -4.796875q-0.171875 -2.6875 -1.59375 -4.265625q-1.421875 -1.59375 -4.75 -1.59375q-2.53125 0 -5.140625 0.984375q-2.59375 0.96875 -5.515625 2.671875l-4.3125 -7.890625q3.828125 -2.359375 8.171875 -3.8125q4.359375 -1.46875 9.078125 -1.46875q7.71875 0 11.859375 4.46875q4.15625 4.46875 4.15625 13.75l0 23.09375l-9.765625 0l-0.8125 -4.140625l-0.328125 0q-2.515625 2.265625 -5.40625 3.6875q-2.875 1.421875 -6.296875 1.421875zm4.0625 -9.265625q2.03125 0 3.53125 -0.9375q1.515625 -0.9375 3.0625 -2.484375l0 -7.0625q-6.34375 0.8125 -8.78125 2.5625q-2.4375 1.75 -2.4375 4.09375q0 1.953125 1.25 2.890625q1.265625 0.9375 3.375 0.9375zm43.031815 25.453125q-4.71875 0 -8.546875 -1.0625q-3.828125 -1.046875 -6.109375 -3.328125q-2.265625 -2.28125 -2.265625 -5.859375q0 -4.875 5.78125 -8.125l0 -0.328125q-1.546875 -1.0625 -2.65625 -2.6875q-1.09375 -1.625 -1.09375 -4.140625q0 -2.203125 1.296875 -4.234375q1.3125 -2.03125 3.265625 -3.328125l0 -0.328125q-2.125 -1.46875 -3.796875 -4.234375q-1.65625 -2.765625 -1.65625 -6.25q0 -4.890625 2.359375 -8.09375q2.359375 -3.21875 6.171875 -4.84375q3.828125 -1.625 8.140625 -1.625q3.578125 0 6.265625 0.96875l14.71875 0l0 8.703125l-6.421875 0q0.5625 0.90625 0.921875 2.28125q0.375 1.375 0.375 3.015625q0 4.625 -2.125 7.640625q-2.109375 3.0 -5.6875 4.46875q-3.578125 1.46875 -8.046875 1.46875q-2.359375 0 -4.875 -0.8125q-1.46875 1.21875 -1.46875 3.0q0 1.546875 1.375 2.28125q1.390625 0.734375 4.71875 0.734375l6.515625 0q7.484375 0 11.421875 2.40625q3.9375 2.390625 3.9375 7.84375q0 4.140625 -2.765625 7.4375q-2.765625 3.296875 -7.8125 5.15625q-5.03125 1.875 -11.9375 1.875zm0.890625 -37.15625q2.359375 0 3.9375 -1.703125q1.59375 -1.71875 1.59375 -5.046875q0 -3.171875 -1.59375 -4.84375q-1.578125 -1.671875 -3.9375 -1.671875q-2.359375 0 -3.953125 1.625q-1.578125 1.625 -1.578125 4.890625q0 3.328125 1.578125 5.046875q1.59375 1.703125 3.953125 1.703125zm0.96875 29.671875q4.078125 0 6.671875 -1.46875q2.609375 -1.453125 2.609375 -3.484375q0 -1.875 -1.59375 -2.53125q-1.578125 -0.640625 -4.59375 -0.640625l-4.140625 0q-2.03125 0 -3.375 -0.125q-1.34375 -0.125 -2.328125 -0.359375q-2.1875 1.953125 -2.1875 3.984375q0 2.265625 2.46875 3.4375q2.484375 1.1875 6.46875 1.1875zm27.163605 -9.671875l0 -40.34375l9.765625 0l0.8125 5.125l0.328125 0q2.59375 -2.4375 5.71875 -4.265625q3.140625 -1.828125 7.203125 -1.828125q6.59375 0 9.5625 4.359375q2.96875 4.34375 2.96875 11.90625l0 25.046875l-11.953125 0l0 -23.5q0 -4.390625 -1.1875 -6.015625q-1.171875 -1.640625 -3.78125 -1.640625q-2.265625 0 -3.90625 1.03125q-1.625 1.015625 -3.578125 2.875l0 27.25l-11.953125 0zm64.5822 0.96875q-5.78125 0 -10.421875 -2.515625q-4.625 -2.515625 -7.3125 -7.234375q-2.6875 -4.71875 -2.6875 -11.390625q0 -6.578125 2.71875 -11.296875q2.734375 -4.71875 7.125 -7.28125q4.390625 -2.5625 9.1875 -2.5625q5.78125 0 9.5625 2.5625q3.78125 2.5625 5.6875 6.921875q1.921875 4.34375 1.921875 9.875q0 1.546875 -0.171875 3.046875q-0.15625 1.5 -0.328125 2.234375l-24.15625 0q0.828125 4.390625 3.671875 6.46875q2.84375 2.0625 6.828125 2.0625q4.3125 0 8.703125 -2.671875l3.984375 7.234375q-3.09375 2.109375 -6.921875 3.328125q-3.8125 1.21875 -7.390625 1.21875zm-8.953125 -25.53125l14.5625 0q0 -3.328125 -1.59375 -5.484375q-1.578125 -2.15625 -5.15625 -2.15625q-2.765625 0 -4.96875 1.90625q-2.1875 1.90625 -2.84375 5.734375zm47.736526 25.53125q-7.46875 0 -10.6875 -4.296875q-3.21875 -4.3125 -3.21875 -11.3125l0 -16.34375l-5.53125 0l0 -8.859375l6.1875 -0.5l1.390625 -10.734375l9.921875 0l0 10.734375l9.671875 0l0 9.359375l-9.671875 0l0 16.1875q0 3.40625 1.421875 4.921875q1.421875 1.5 3.78125 1.5q0.96875 0 1.984375 -0.234375q1.015625 -0.25 1.828125 -0.578125l1.875 8.703125q-1.546875 0.484375 -3.78125 0.96875q-2.234375 0.484375 -5.171875 0.484375zm15.617432 -0.96875l0 -40.34375l11.953125 0l0 40.34375l-11.953125 0zm5.9375 -46.28125q-3.015625 0 -4.890625 -1.703125q-1.859375 -1.703125 -1.859375 -4.546875q0 -2.859375 1.859375 -4.5625q1.875 -1.703125 4.890625 -1.703125q3.015625 0 4.875 1.703125q1.875 1.703125 1.875 4.5625q0 2.84375 -1.875 4.546875q-1.859375 1.703125 -4.875 1.703125zm34.08719 47.25q-5.625 0 -10.140625 -2.46875q-4.5 -2.484375 -7.15625 -7.234375q-2.640625 -4.765625 -2.640625 -11.4375q0 -6.75 2.921875 -11.46875q2.9375 -4.71875 7.734375 -7.1875q4.796875 -2.484375 10.328125 -2.484375q3.75 0 6.625 1.21875q2.890625 1.21875 5.171875 3.09375l-5.609375 7.71875q-2.84375 -2.359375 -5.453125 -2.359375q-4.3125 0 -6.875 3.09375q-2.5625 3.09375 -2.5625 8.375q0 5.203125 2.5625 8.34375q2.5625 3.125 6.46875 3.125q1.953125 0 3.8125 -0.84375q1.875 -0.859375 3.421875 -2.078125l4.71875 7.796875q-3.0 2.609375 -6.5 3.703125q-3.5 1.09375 -6.828125 1.09375zm29.760681 0q-5.53125 0 -8.78125 -3.53125q-3.25 -3.53125 -3.25 -8.65625q0 -6.34375 5.359375 -9.921875q5.375 -3.578125 17.328125 -4.796875q-0.171875 -2.6875 -1.59375 -4.265625q-1.421875 -1.59375 -4.75 -1.59375q-2.53125 0 -5.140625 0.984375q-2.59375 0.96875 -5.515625 2.671875l-4.3125 -7.890625q3.828125 -2.359375 8.171875 -3.8125q4.359375 -1.46875 9.078125 -1.46875q7.71875 0 11.859375 4.46875q4.15625 4.46875 4.15625 13.75l0 23.09375l-9.765625 0l-0.8125 -4.140625l-0.328125 0q-2.515625 2.265625 -5.40625 3.6875q-2.875 1.421875 -6.296875 1.421875zm4.0625 -9.265625q2.03125 0 3.53125 -0.9375q1.515625 -0.9375 3.0625 -2.484375l0 -7.0625q-6.34375 0.8125 -8.78125 2.5625q-2.4375 1.75 -2.4375 4.09375q0 1.953125 1.25 2.890625q1.265625 0.9375 3.375 0.9375z" fill-rule="nonzero"/></g></svg>